<?xml version="1.0" encoding="utf-8"?>
<!-- Generator: Adobe Illustrator 25.1.0, SVG Export Plug-In . SVG Version: 6.00 Build 0)  -->
<svg version="1.1" id="Layer_1" xmlns="http://www.w3.org/2000/svg" xmlns:xlink="http://www.w3.org/1999/xlink" x="0px" y="0px"
	 viewBox="0 0 152.7 62.7" style="enable-background:new 0 0 152.7 62.7;" xml:space="preserve">
<style type="text/css">
	.st0{fill:#FFFFFF;}
	.st1{fill:#FED200;}
	.st2{fill:#FFFFFF;}
</style>
<g>
	<path class="st0" d="M25.4,47.7c0.1-0.8,0.1-1.6,0.1-2.6c0-1.8-0.3-3.6-0.8-5.2c-0.5-1.6-1.3-2.9-2.4-4c-1-1.1-2.3-2-3.7-2.6
		c-1.5-0.6-3.1-1-5-1c-2.3,0-4.3,0.4-6,1.1c-1.7,0.8-3.1,1.8-4.2,3.1c-1.1,1.3-2,2.9-2.5,4.6C0.3,43,0,45,0,47c0,2.1,0.3,4,0.8,5.7
		c0.5,1.7,1.4,3.2,2.5,4.5c1.1,1.2,2.6,2.2,4.4,2.9c1.8,0.7,4.1,1.1,6.6,1.1c3.2,0,6.4-0.6,9.5-1.6l-1.7-6.7c-1.2,0.4-2.3,0.8-3.5,1
		c-3.4,0.7-6.1,0.5-7.9-0.6c-1.1-0.7-1.9-1.8-2.3-3.4l-0.1-0.6h16.9C25.3,48.9,25.3,48.3,25.4,47.7z M8.3,43.9l0-0.5
		c0.2-1.6,0.7-2.9,1.6-3.7c0.9-0.8,2-1.2,3.3-1.2c1.5,0,2.6,0.5,3.4,1.5c0.8,0.9,1.2,2.1,1.3,3.5l0,0.5H8.3z"/>
	<path class="st0" d="M43.7,41.1c0.8,0.9,1.2,2.4,1.2,4.5v15h8.4v-16c0-2.6-0.4-4.8-1.2-6.3c-0.8-1.6-1.8-2.8-3-3.6
		c-1.2-0.8-2.7-1.4-4.2-1.7c-1.6-0.3-3.2-0.4-4.8-0.4c-2.7,0-5,0.2-6.8,0.6c-1.7,0.4-3.1,0.8-4.3,1.2v26.2h8.4V40.2l0.2-0.1
		c0.1-0.1,0.3-0.2,1-0.3C41,39.4,42.7,39.9,43.7,41.1z"/>
	<rect x="57.3" y="33.1" class="st0" width="8.4" height="27.4"/>
	<path class="st0" d="M94.6,47.7c0.1-0.8,0.1-1.6,0.1-2.6c0-1.8-0.3-3.6-0.8-5.2c-0.5-1.6-1.3-2.9-2.4-4c-1-1.1-2.3-2-3.7-2.6
		c-1.5-0.6-3.1-1-5-1c-2.3,0-4.3,0.4-6,1.1c-1.7,0.8-3.1,1.8-4.2,3.1c-1.1,1.3-2,2.9-2.5,4.6C69.5,43,69.2,45,69.2,47
		c0,2.1,0.3,4,0.8,5.7c0.5,1.7,1.4,3.2,2.5,4.5c1.1,1.2,2.6,2.2,4.4,2.9c1.8,0.7,4.1,1.1,6.6,1.1c3.2,0,6.4-0.6,9.5-1.6l-1.7-6.7
		c-1.2,0.4-2.3,0.8-3.5,1c-3.4,0.7-6.1,0.5-7.9-0.6c-1.1-0.7-1.9-1.8-2.3-3.4l-0.1-0.6h16.9C94.4,48.9,94.5,48.3,94.6,47.7z
		 M77.5,43.9l0-0.5c0.2-1.7,0.7-2.9,1.6-3.7c0.9-0.8,2-1.2,3.3-1.2c1.5,0,2.6,0.5,3.4,1.5c0.8,0.9,1.2,2.1,1.3,3.5l0,0.5H77.5z"/>
	<path class="st0" d="M123,41.1c0.8,0.9,1.2,2.4,1.2,4.5v15h8.4v-16c0-2.6-0.4-4.8-1.2-6.3c-0.8-1.6-1.8-2.8-3-3.6
		c-1.2-0.8-2.7-1.4-4.2-1.7c-1.6-0.3-3.2-0.4-4.8-0.4c-2.7,0-5,0.2-6.8,0.6c-1.7,0.4-3.1,0.8-4.3,1.2v26.2h8.4V40.2l0.2-0.1
		c0.1-0.1,0.3-0.2,1-0.3C120.3,39.4,122,39.9,123,41.1z"/>
	<polygon class="st0" points="136.6,33.1 136.6,60.5 152.7,60.5 152.7,53.6 145,53.6 145,33.1 	"/>
	<path class="st1" d="M69,10.3V5.8L74.8,0c0,0-13.3,2.3-18.3,10c-5.1,7.7,1,16.5,1,16.5s0,0,0,0l5.7-5.7v-4.6L69,10.3z"/>
	<path class="st0" d="M75.6,10.3l-6.6,0l-5.9,5.8h11.8C75.4,14.2,75.6,12.2,75.6,10.3z"/>
	<path class="st0" d="M73,20.7l-9.9,0l-5.7,5.7c0,0,0,0,0,0S67.7,28.9,73,20.7C73,20.8,73,20.8,73,20.7z"/>
	<path class="st0" d="M74.8,0L69,5.8h6.5C75.3,2.5,74.8,0,74.8,0z"/>
	<path class="st2" d="M63.1,16.1"/>
	<circle class="st0" cx="100.7" cy="56.3" r="4.8"/>
</g>
</svg>
